<svg xmlns="http://www.w3.org/2000/svg" width="22.502" height="21.223" viewBox="0 0 22.502 21.223"><defs><style>.a{fill:none;stroke:#ff6f3d;stroke-width:1.3px;}</style></defs><path class="a" d="M274.963,127.278l-9.92-9.1a.694.694,0,0,0-.925,0l-9.92,9.1a.594.594,0,0,0-.15.678.662.662,0,0,0,.612.386h1.984v9.1a.428.428,0,0,0,.441.414h14.99a.428.428,0,0,0,.441-.414v-9.1H274.5a.662.662,0,0,0,.612-.386A.594.594,0,0,0,274.963,127.278Zm-7.737,5.379v5.2h-5.29v-5.2a.428.428,0,0,1,.441-.414h4.409A.428.428,0,0,1,267.226,132.658Z" transform="translate(-253.33 -117.285)"/></svg>