<svg xmlns="http://www.w3.org/2000/svg" xmlns:xlink="http://www.w3.org/1999/xlink" width="53.851" height="54.725" viewBox="0 0 53.851 54.725"><defs><style>.a{fill:#ff6f3d;}.b{clip-path:url(#a);}</style><clipPath id="a"><rect class="a" width="53.851" height="54.725"/></clipPath></defs><g transform="translate(0)"><g class="b" transform="translate(0)"><path class="a" d="M53.851,53.721V28.335a1.01,1.01,0,0,0-1.01-1.01H41.224V10.206a1.01,1.01,0,0,0-.68-.955L13.968.056a1.011,1.011,0,0,0-1.142.352,1.04,1.04,0,0,0-.2.626V27.325H1.01A1.01,1.01,0,0,0,0,28.335v25.38a1,1,0,0,0,1.007,1c6.729-.019,45.118,0,51.84.006a1,1,0,0,0,1-1M6.163,32.8H8.481v3.031H6.163ZM8.485,47.795H6.167V44.764H8.485Zm0-5.981H6.167V38.783H8.485Zm15.45,6.15H20.279V44.6h3.655Zm0-5.981H20.279V38.614h3.655Zm0-5.981H20.279V32.633h3.655Zm0-5.981H20.279V26.652h3.655Zm0-5.981H20.279V20.67h3.655Zm0-5.981H20.279V14.689h3.655Zm9.637,29.907H29.916V44.6h3.655Zm0-5.981H29.916V38.614h3.655Zm0-5.981H29.916V32.633h3.655Zm0-5.981H29.916V26.652h3.655Zm0-5.981H29.916V20.67h3.655Zm0-5.981H29.916V14.689h3.655ZM47.684,47.795H45.366V44.764h2.318Zm0-5.981H45.366V38.783h2.318Zm0-5.981H45.37V32.8h2.318Z" transform="translate(0 0)"/></g></g></svg>