<svg xmlns="http://www.w3.org/2000/svg" width="43.167" height="43.167" viewBox="0 0 43.167 43.167"><defs><style>.a{fill:none;stroke:#ff6f3d;stroke-linecap:round;stroke-linejoin:round;stroke-width:2px;}</style></defs><g transform="translate(1.414 1.414)"><circle class="a" cx="14.262" cy="14.262" r="14.262" transform="translate(0 20.17) rotate(-45)"/><path class="a" d="M50.891,250.328s2.379,3.46,1.613,5.183-2.317,1.4-2.872,1.723-3.957.634-2.91,1.681,2.863,1.143,4.059,2.34.686,2.871,1.874,2.871,2.023-2.28,3.163-1.14-.634,4.011-2.07,5.447-.164,2.32-.811,2.967-1.585,1.244-1.585,2.489-2.869,2.489-3.251.383.622-5.217-.288-6.126-2.584-3.187-1.914-5.279-3.981-5.435-3.981-5.435" transform="translate(-34.344 -243.956)"/><path class="a" d="M83.95,268.848s-3.8.112-5.016-.588-3.829.766-3.351,3.446,2.546,1.168,4.154,2.776-.842,3.369,0,4.211,1.368,1.69.569,3.669" transform="translate(-49.959 -252.206)"/><path class="a" d="M73.981,251.756s-3.209,2.791-2.539,4.226,1.508.952,2.539.357,1.182-1.266,2.343-.6a6.207,6.207,0,0,0,3.2.4" transform="translate(-48.019 -244.619)"/></g></svg>