<svg xmlns="http://www.w3.org/2000/svg" width="21.457" height="15.422" viewBox="0 0 21.457 15.422"><defs><style>.a{fill:#ff6f3d;}</style></defs><path class="a" d="M18.774,0H2.682A2.685,2.685,0,0,0,0,2.682V12.74a2.685,2.685,0,0,0,2.682,2.682H18.774a2.685,2.685,0,0,0,2.682-2.682V2.682A2.685,2.685,0,0,0,18.774,0m1.341,12.74a1.342,1.342,0,0,1-1.341,1.341H2.682A1.342,1.342,0,0,1,1.341,12.74V2.682A1.342,1.342,0,0,1,2.682,1.341H18.774a1.342,1.342,0,0,1,1.341,1.341Z"/><path class="a" d="M19,5.152l-6.951,5.687L5.1,5.152a.671.671,0,1,0-.85,1.038l7.376,6.035a.671.671,0,0,0,.85,0L19.847,6.19A.671.671,0,0,0,19,5.152" transform="translate(-1.318 -1.647)"/></svg>