<svg xmlns="http://www.w3.org/2000/svg" xmlns:xlink="http://www.w3.org/1999/xlink" width="21" height="21" viewBox="0 0 21 21"><defs><style>.a{fill:#ff6f3d;}.b{clip-path:url(#a);}</style><clipPath id="a"><rect class="a" width="21" height="21"/></clipPath></defs><g class="b"><path class="a" d="M17.471,13a1.609,1.609,0,0,0-2.433,0c-.57.564-1.138,1.129-1.7,1.7a.385.385,0,0,1-.274.147.4.4,0,0,1-.2-.061c-.368-.2-.76-.363-1.114-.583A17.66,17.66,0,0,1,7.5,10.327,10.059,10.059,0,0,1,5.975,7.883a.35.35,0,0,1,.086-.449c.569-.55,1.124-1.114,1.683-1.678a1.618,1.618,0,0,0,0-2.492c-.445-.449-.89-.889-1.334-1.339C5.947,1.466,5.493,1,5.029.548A1.748,1.748,0,0,0,3.812,0,1.734,1.734,0,0,0,2.594.553C2.021,1.117,1.47,1.7.887,2.251a2.771,2.771,0,0,0-.87,1.87A7.914,7.914,0,0,0,.629,7.53a20.725,20.725,0,0,0,3.678,6.126,22.757,22.757,0,0,0,7.536,5.9,10.891,10.891,0,0,0,4.175,1.215c.091.006.18.008.267.008a2.984,2.984,0,0,0,2.359-1.007c.488-.546,1.037-1.043,1.554-1.564a1.627,1.627,0,0,0,.01-2.477q-1.363-1.37-2.736-2.73m1.742,4.232c-.17.172-.345.341-.519.511-.359.349-.731.71-1.084,1.105a1.612,1.612,0,0,1-1.325.545c-.062,0-.125,0-.192-.006a9.4,9.4,0,0,1-3.645-1.077,21.482,21.482,0,0,1-7.082-5.543A19.233,19.233,0,0,1,1.925,7.043,6.53,6.53,0,0,1,1.4,4.228a1.4,1.4,0,0,1,.445-.974C2.2,2.911,2.55,2.56,2.9,2.209c.222-.224.442-.447.67-.671a.453.453,0,0,1,.244-.153.453.453,0,0,1,.248.152c.305.3.605.6.906.9l.456.458q.339.343.679.681c.219.218.437.437.658.66.255.256.24.3,0,.539l-.233.236c-.474.479-.947.956-1.446,1.438A1.724,1.724,0,0,0,4.7,8.42,11.331,11.331,0,0,0,6.427,11.2a18.948,18.948,0,0,0,4.6,4.174,8.872,8.872,0,0,0,.789.424c.132.065.265.129.375.189a1.768,1.768,0,0,0,.877.24,1.734,1.734,0,0,0,1.265-.565c.547-.561,1.1-1.112,1.682-1.686a.454.454,0,0,1,.24-.154.46.46,0,0,1,.242.153q1.368,1.36,2.73,2.725c.21.211.233.28-.011.526" transform="translate(0)"/></g></svg>