<svg xmlns="http://www.w3.org/2000/svg" width="20.079" height="20.079" viewBox="0 0 20.079 20.079"><defs><style>.a{fill:#ff6f3d;}</style></defs><path class="a" d="M658.7,755.517c2.674,0,2.994,0,4.051.059a5.446,5.446,0,0,1,1.862.346,3.329,3.329,0,0,1,1.9,1.9,5.447,5.447,0,0,1,.346,1.861c.05,1.057.059,1.377.059,4.051s0,2.994-.059,4.051a5.446,5.446,0,0,1-.346,1.861,3.329,3.329,0,0,1-1.9,1.9,5.443,5.443,0,0,1-1.862.345c-1.057.051-1.373.059-4.051.059s-2.994,0-4.051-.059a5.442,5.442,0,0,1-1.861-.345,3.33,3.33,0,0,1-1.9-1.9,5.443,5.443,0,0,1-.345-1.861c-.051-1.057-.059-1.377-.059-4.051s0-2.994.059-4.051a5.444,5.444,0,0,1,.345-1.861,3.33,3.33,0,0,1,1.9-1.9,5.445,5.445,0,0,1,1.861-.346c1.057-.05,1.377-.059,4.051-.059m0-1.806c-2.721,0-3.062,0-4.131.059a7.37,7.37,0,0,0-2.434.467,5.094,5.094,0,0,0-2.948,2.948,7.372,7.372,0,0,0-.467,2.434c-.046,1.07-.059,1.411-.059,4.132s0,3.062.059,4.131a7.369,7.369,0,0,0,.467,2.434,5.093,5.093,0,0,0,2.948,2.948,7.359,7.359,0,0,0,2.434.467c1.07.047,1.411.059,4.131.059s3.062,0,4.131-.059a7.362,7.362,0,0,0,2.434-.467,5.093,5.093,0,0,0,2.948-2.948,7.366,7.366,0,0,0,.468-2.434c.046-1.07.059-1.411.059-4.131s0-3.062-.059-4.132a7.369,7.369,0,0,0-.468-2.434,5.093,5.093,0,0,0-2.948-2.948,7.373,7.373,0,0,0-2.434-.467C661.761,753.723,661.42,753.71,658.7,753.71Z" transform="translate(-648.66 -753.71)"/><path class="a" d="M665.426,765.28a5.146,5.146,0,1,0,5.146,5.146h0A5.146,5.146,0,0,0,665.426,765.28Zm0,8.486a3.339,3.339,0,1,1,3.34-3.339h0a3.339,3.339,0,0,1-3.34,3.339Z" transform="translate(-655.387 -760.407)"/><ellipse class="a" cx="1.204" cy="1.204" rx="1.204" ry="1.204" transform="translate(14.183 3.466)"/></svg>