<svg xmlns="http://www.w3.org/2000/svg" width="23.309" height="16.32" viewBox="0 0 23.309 16.32"><defs><style>.a{fill:#ff6f3d;}</style></defs><g transform="translate(0)"><path class="a" d="M22.829,79.555A2.92,2.92,0,0,0,20.775,77.5c-1.824-.5-9.12-.5-9.12-.5s-7.3,0-9.12.48A2.98,2.98,0,0,0,.48,79.555a32.983,32.983,0,0,0,0,11.213,2.921,2.921,0,0,0,2.055,2.055c1.843.5,9.12.5,9.12.5s7.3,0,9.12-.48a2.92,2.92,0,0,0,2.055-2.054,30.773,30.773,0,0,0,.48-5.606A29.209,29.209,0,0,0,22.829,79.555Zm-13.5,9.1V81.667L15.4,85.161Z" transform="translate(0 -77.001)"/></g></svg>