<svg xmlns="http://www.w3.org/2000/svg" width="22.341" height="18.143" viewBox="0 0 22.341 18.143"><defs><style>.a{fill:#ff6f3d;}</style></defs><path class="a" d="M251.011,865.308a9.306,9.306,0,0,1-2.631.723,4.578,4.578,0,0,0,2.012-2.538,9.125,9.125,0,0,1-2.908,1.112,4.583,4.583,0,0,0-7.922,3.133,4.792,4.792,0,0,0,.117,1.046,13.031,13.031,0,0,1-9.447-4.761,4.583,4.583,0,0,0,1.407,6.1,4.585,4.585,0,0,1-2.078-.572v.061a4.583,4.583,0,0,0,3.677,4.489,4.672,4.672,0,0,1-2.069.08,4.578,4.578,0,0,0,4.278,3.18,9.2,9.2,0,0,1-5.685,1.951,9.367,9.367,0,0,1-1.093-.066,13.038,13.038,0,0,0,20.071-10.971v-.6A9.288,9.288,0,0,0,251.011,865.308Z" transform="translate(-228.67 -863.16)"/></svg>